<svg width="9" height="12" viewBox="0 0 9 12" fill="none" xmlns="http://www.w3.org/2000/svg">
<path d="M4.22455 4.445C5.70455 4.445 6.79455 4.74 7.49455 5.33C8.20455 5.92 8.55955 6.71 8.55955 7.7C8.55955 8.34 8.39955 8.925 8.07955 9.455C7.75955 9.975 7.26955 10.395 6.60955 10.715C5.95955 11.025 5.15455 11.18 4.19455 11.18C3.45455 11.18 2.72455 11.085 2.00455 10.895C1.29455 10.695 0.689551 10.415 0.189551 10.055L1.14955 8.195C1.54955 8.495 2.00955 8.73 2.52955 8.9C3.04955 9.06 3.58455 9.14 4.13455 9.14C4.74455 9.14 5.22455 9.02 5.57455 8.78C5.92455 8.54 6.09955 8.205 6.09955 7.775C6.09955 7.325 5.91455 6.985 5.54455 6.755C5.18455 6.525 4.55455 6.41 3.65455 6.41H0.969551L1.50955 0.499999H7.91455V2.45H3.53455L3.36955 4.445H4.22455Z" fill="white"/>
</svg>
