<svg width="47" height="66" viewBox="0 0 47 66" fill="none" xmlns="http://www.w3.org/2000/svg">
<path fill-rule="evenodd" clip-rule="evenodd" d="M47 14.9135V66H0V14.9135V13.9615H0.0470999C0.820622 6.16862 11.0252 0 23.5 0C35.9748 0 46.1794 6.16862 46.9529 13.9615H47V14.9135Z" fill="#2679B7"/>
<path d="M18 32.3914H29.2128V43.7392H18V32.3914Z" fill="white"/>
<path d="M37.6548 40.3347V31.9254C37.6548 29.1747 37.6548 27.7995 37.0961 26.5838C36.5371 25.3682 35.4849 24.4544 33.3803 22.627L31.7884 21.2447C27.7617 17.7482 25.7484 16 23.3274 16C20.9064 16 18.8931 17.7482 14.8664 21.2447L13.2745 22.627C11.1699 24.4544 10.1177 25.3682 9.55883 26.5838C9 27.7995 9 29.1747 9 31.9254V40.3347C9 41.7839 9 42.5084 9.24236 43.0801C9.5655 43.8421 10.1853 44.4476 10.9655 44.7633C11.5506 45 12.2923 45 13.7758 45H14.3064C15.2934 45 15.7869 45 16.1918 44.8941C17.2905 44.6064 18.1487 43.768 18.4431 42.6947C18.5516 42.2992 18.5516 41.8172 18.5516 40.853V37.2244C18.5516 34.6478 20.6897 32.5591 23.3274 32.5591C25.9651 32.5591 28.1032 34.6478 28.1032 37.2244V40.853C28.1032 41.8172 28.1032 42.2992 28.2116 42.6947C28.5061 43.768 29.3643 44.6064 30.4631 44.8941C30.8679 45 31.3614 45 32.3484 45H32.879C34.3625 45 35.1042 45 35.6894 44.7633C36.4695 44.4476 37.0894 43.8421 37.4125 43.0801C37.6548 42.5084 37.6548 41.7839 37.6548 40.3347Z" fill="black"/>
<ellipse cx="25.8287" cy="39.3261" rx="1.82867" ry="1.8913" fill="black"/>
</svg>
