<svg width="26" height="26" viewBox="0 0 26 26" fill="none" xmlns="http://www.w3.org/2000/svg">
<path d="M23.5625 1.18188H2.4375C1.09131 1.18188 0 2.24012 0 3.54552C0 4.85092 1.09131 5.90916 2.4375 5.90916H23.5625C24.9087 5.90916 26 4.85092 26 3.54552C26 2.24012 24.9087 1.18188 23.5625 1.18188Z" fill="black"/>
<path d="M23.5625 10.6365H2.4375C1.09131 10.6365 0 11.6947 0 13.0001C0 14.3055 1.09131 15.3637 2.4375 15.3637H23.5625C24.9087 15.3637 26 14.3055 26 13.0001C26 11.6947 24.9087 10.6365 23.5625 10.6365Z" fill="white"/>
<path d="M23.5625 20.0911H2.4375C1.09131 20.0911 0 21.1493 0 22.4547C0 23.7601 1.09131 24.8183 2.4375 24.8183H23.5625C24.9087 24.8183 26 23.7601 26 22.4547C26 21.1493 24.9087 20.0911 23.5625 20.0911Z" fill="black"/>
</svg>
