<svg width="29" height="29" viewBox="0 0 29 29" fill="none" xmlns="http://www.w3.org/2000/svg">
<path d="M28.6548 24.3347V15.9254C28.6548 13.1747 28.6548 11.7995 28.0961 10.5838C27.5371 9.36816 26.4849 8.45444 24.3803 6.627L22.7884 5.24469C18.7617 1.74823 16.7484 0 14.3274 0C11.9064 0 9.89308 1.74823 5.86642 5.24469L4.27449 6.627C2.16993 8.45444 1.11767 9.36816 0.558833 10.5838C0 11.7995 0 13.1747 0 15.9254V24.3347C0 25.7839 0 26.5084 0.242356 27.0801C0.565503 27.8421 1.18532 28.4476 1.96545 28.7633C2.55057 29 3.29231 29 4.7758 29H5.30644C6.29341 29 6.78691 29 7.19179 28.8941C8.29051 28.6064 9.14872 27.768 9.44312 26.6947C9.55161 26.2992 9.55161 25.8172 9.55161 24.853V21.2244C9.55161 18.6478 11.6897 16.5591 14.3274 16.5591C16.9651 16.5591 19.1032 18.6478 19.1032 21.2244V24.853C19.1032 25.8172 19.1032 26.2992 19.2116 26.6947C19.5061 27.768 20.3643 28.6064 21.4631 28.8941C21.8679 29 22.3614 29 23.3484 29H23.879C25.3625 29 26.1042 29 26.6894 28.7633C27.4695 28.4476 28.0894 27.8421 28.4125 27.0801C28.6548 26.5084 28.6548 25.7839 28.6548 24.3347Z" fill="black"/>
</svg>
