<svg width="38" height="48" viewBox="0 0 38 48" fill="none" xmlns="http://www.w3.org/2000/svg">
<rect width="38" height="48" rx="12" fill="#224C68"/>
<path d="M31 15H7V32H31V15Z" fill="#224C68"/>
<path d="M29.8572 23.5V30.8667L25.4 27.1833L20.9429 23.5L25.4 19.8167L29.8572 16.1333V23.5Z" fill="#2679B7" stroke="#224C68" stroke-miterlimit="10"/>
<path d="M8.06665 23.5V16.1333L12.5238 19.8167L16.9809 23.5L12.5238 27.1833L8.06665 30.8667V23.5Z" fill="#2679B7" stroke="#224C68" stroke-miterlimit="10"/>
<path d="M18.9619 30.8667H8.06665L13.5143 25.9555L18.9619 21.0444L24.4095 25.9555L29.8571 30.8667H18.9619Z" fill="#2679B7" stroke="#224C68" stroke-miterlimit="10"/>
<path d="M18.9619 16.1333H29.8571L24.4095 20.9903L20.8222 24.1926C20.3103 24.6457 19.6481 24.8962 18.9619 24.8962C18.2757 24.8962 17.6135 24.6457 17.1016 24.1926L13.5143 20.9903L8.06665 16.1333H18.9619Z" fill="#2679B7" stroke="#224C68" stroke-miterlimit="10"/>
</svg>
