<svg width="22" height="11" viewBox="0 0 22 11" fill="none" xmlns="http://www.w3.org/2000/svg">
<path d="M15.6547 0.226817C15.2277 -0.123433 14.5976 -0.0612003 14.2474 0.365817C13.8971 0.792834 13.9593 1.42293 14.3864 1.77318L15.6547 0.226817ZM19.8727 6.27318C20.2997 6.62343 20.9298 6.5612 21.28 6.13418C21.6303 5.70717 21.5681 5.07707 21.141 4.72682L19.8727 6.27318ZM21.141 6.27318C21.5681 5.92293 21.6303 5.29283 21.28 4.86582C20.9298 4.4388 20.2997 4.37657 19.8727 4.72682L21.141 6.27318ZM14.3864 9.22682C13.9593 9.57707 13.8971 10.2072 14.2474 10.6342C14.5976 11.0612 15.2277 11.1234 15.6547 10.7732L14.3864 9.22682ZM20.5069 6.5C21.0591 6.5 21.5069 6.05228 21.5069 5.5C21.5069 4.94772 21.0591 4.5 20.5069 4.5V6.5ZM1 4.5C0.447715 4.5 0 4.94772 0 5.5C0 6.05228 0.447715 6.5 1 6.5V4.5ZM14.3864 1.77318L19.8727 6.27318L21.141 4.72682L15.6547 0.226817L14.3864 1.77318ZM19.8727 4.72682L14.3864 9.22682L15.6547 10.7732L21.141 6.27318L19.8727 4.72682ZM20.5069 4.5H1V6.5H20.5069V4.5Z" fill="white"/>
</svg>
